<?xml version="1.0" encoding="UTF-8"?>
<svg id="Layer_1" data-name="Layer 1" xmlns="http://www.w3.org/2000/svg" viewBox="0 0 40.43 40.46">
  <defs>
    <style>
      .cls-1 {
        fill: #fff;
        fill-rule: evenodd;
        stroke-width: 0px;
      }
    </style>
  </defs>
  <path class="cls-1" d="m40.11,21.21c-.05.32-.12.64-.19,1.02-.41-.08-.8-.16-1.21-.24.11-.73.23-1.44.32-2.15.37-3.03.03-5.95-1.42-8.69-.59-1.11-1.14-2.25-1.82-3.31-.87-1.34-2.06-2.34-3.67-2.65-.57-.11-1.18-.14-1.76-.07-1.38.16-2.58-.13-3.6-1.1-.52-.49-1.05-.96-1.59-1.42-.8-.68-1.2-1.54-1.17-2.6h1.26c-.04.67.22,1.2.72,1.63.55.47,1.09.95,1.62,1.45.68.64,1.46.91,2.38.79,2.89-.39,5.13.78,6.71,3.09,1.69,2.47,3.05,5.13,3.53,8.14.07.47.13.93.2,1.4v2.37c-.1.78-.2,1.56-.32,2.33Zm-11.52-9.76c.75.6,1.5,1.2,2.25,1.8,2.89,2.32,3.58,6,1.72,9.19-.03.05-.05.09-.08.16.38.62.59,1.29.37,2.02-.11.37-.28.75-.51,1.05-1.28,1.64-2.58,3.26-3.89,4.87-.92,1.14-2.47,1.31-3.59.41-1.09-.88-1.26-2.42-.35-3.56,1.3-1.64,2.61-3.27,3.92-4.9.74-.91,1.7-1.14,3.06-.74.59-.92.85-1.93.83-3.02-.03-1.77-.74-3.23-2.11-4.36-1.39-1.16-2.86-2.26-4.15-3.52-2.82-2.76-4.49-6.15-5.19-10.03-.05-.27-.02-.55-.03-.83h1.26c-.02,1.11.32,2.16.66,3.19,1.11,3.33,3.07,6.08,5.82,8.27Zm-3.08,16.7c-.04.05-.08.1-.11.16-.34.53-.26,1.18.19,1.61.45.42,1.17.48,1.61.07.38-.35.68-.77,1.03-1.18-.69-.55-1.32-1.06-1.98-1.59-.27.33-.5.63-.74.92Zm5.66-5.07c-.54-.43-1.29-.35-1.76.21-.42.5-.82,1.02-1.23,1.53-.38.47-.75.94-1.14,1.42.67.54,1.3,1.04,1.97,1.58.81-1.01,1.61-1.99,2.38-2.99.44-.58.33-1.32-.22-1.75Zm-9.05-13.34c-1.18,2.52-1.16,5.05-.06,7.6.51,1.19,1.07,2.39,1.4,3.64.88,3.42-1.63,6.96-5.14,7.39-.39.05-.79.07-1.18.07-2.97,0-5.95,0-8.92,0-2.64,0-4.44,1.79-4.44,4.43,0,2.37,0,4.74,0,7.1v.45h-1.26v-.4c0-2.42,0-4.84,0-7.26,0-3.18,2.39-5.57,5.56-5.58,3.13,0,6.26,0,9.4,0,2.25-.01,4.17-1.51,4.73-3.65.28-1.05.19-2.09-.22-3.09-.5-1.23-1.06-2.44-1.49-3.69-.81-2.37-.69-4.74.27-7.05.1-.24.1-.43,0-.66-1.06-2.21-2.11-4.44-3.17-6.65-.36-.75-.54-1.53-.54-2.36h1.26c0,.68.18,1.32.47,1.94,1.12,2.33,2.22,4.68,3.33,7.01.13.27.13.51,0,.79Zm-10.13,11.62c0,.52-.23.75-.75.75-1.18,0-2.37,0-3.55,0-.53,0-.75-.23-.75-.78,0-.98,0-1.97,0-3.01-1.03,0-2,0-2.97,0-.61,0-.82-.21-.82-.83,0-1.15,0-2.29,0-3.44,0-.56.22-.78.79-.78.98,0,1.97,0,3,0v-1.83c0-.43,0-.87,0-1.3.01-.4.25-.65.64-.65,1.25-.01,2.5-.01,3.75,0,.43,0,.65.26.66.72,0,.88,0,1.76,0,2.65v.42h2.87c.75,0,.92.18.92.93,0,1.11,0,2.21,0,3.32,0,.59-.22.8-.81.81-.97,0-1.95,0-2.98,0v.39c0,.88,0,1.76,0,2.64Zm2.06-4.3h.45v-2.53h-.4c-.84,0-1.68,0-2.52,0-.64,0-.84-.21-.84-.85,0-.33,0-.66,0-.99v-1.92h-2.53c0,.99,0,1.94,0,2.9,0,.66-.2.86-.88.86-.84,0-1.68,0-2.53,0h-.37v2.53h2.85c.74,0,.92.18.92.94v2.83h2.53c0-.99,0-1.94,0-2.9,0-.67.2-.86.88-.86h2.44Zm4.3,2.01c-.11.3-.12.57-.04.88.41,1.45.8,2.91,1.19,4.37.17.64-.13,1-.79.94-1.87-.18-3.74-.38-5.62-.56-.18-.02-.37,0-.54.05-5.48,1.82-11.13-1.39-12.37-7.03-.54-2.46.05-5.4,1.52-7.33.33.23.65.45,1,.7-.08.13-.14.24-.21.35-3.18,5.12.01,11.78,6,12.51,1.13.14,2.25.08,3.31-.3.7-.25,1.38-.23,2.09-.15,1.37.15,2.74.28,4.16.42-.03-.15-.05-.27-.08-.39-.32-1.19-.64-2.39-.98-3.57-.11-.38-.09-.7.06-1.06,1.83-4.48-.57-9.56-5.21-10.94-2.97-.88-5.64-.22-7.97,1.81-.1.09-.19.17-.3.27-.29-.3-.56-.58-.86-.89.66-.71,1.43-1.28,2.28-1.72,5.84-3.05,12.83.48,13.84,6.98.25,1.59.08,3.15-.49,4.66Zm1.88,10.01h2.48v1.22h-2.48v-1.22Zm4.9,3.53c-.62.79-1.2,1.53-1.8,2.3-.33-.26-.65-.51-.99-.78.6-.76,1.19-1.52,1.8-2.3.33.26.65.51.99.78Zm3.28.07c.21.84.42,1.65.64,2.52-.41.1-.8.2-1.23.31-.21-.86-.42-1.66-.63-2.51.41-.11.78-.2,1.22-.32Zm-19.29.58c.6-.24,1.19-.09,1.71.46.55.57,1.12,1.12,1.63,1.72,1.28,1.52,2.97,2.35,4.81,2.95,8.01,2.65,16.5-1.63,19.5-9.8.58-1.56.96-3.19,1.44-4.79.05-.19.11-.37.18-.6.4.1.77.2,1.14.3.01.06.04.1.03.13-.6,2-1.06,4.06-1.85,5.98-2.12,5.15-5.85,8.66-11.25,10.2-4.53,1.29-8.86.63-12.91-1.76-.69-.41-1.26-1.03-1.84-1.59-.61-.58-1.17-1.22-1.76-1.82-.09-.09-.23-.14-.35-.2-.05.14-.13.28-.13.41,0,1.76,0,3.53,0,5.29v.28h-1.24c0-.13-.02-.24-.02-.35,0-1.76,0-3.53,0-5.29,0-.75.32-1.28.91-1.51Z"/>
</svg>