<?xml version="1.0" encoding="UTF-8"?>
<svg id="Layer_1" data-name="Layer 1" xmlns="http://www.w3.org/2000/svg" viewBox="0 0 41.51 41.5">
  <defs>
    <style>
      .cls-1 {
        fill: #fff;
        fill-rule: evenodd;
        stroke-width: 0px;
      }
    </style>
  </defs>
  <path class="cls-1" d="m40.62,11.16c-.11.21-.1.35,0,.55,1.08,2.01,1.15,4.06.28,6.16-.07.16-.06.4,0,.55.68,1.55.78,3.12.27,4.74-.06.2-.06.45,0,.65.4,1.29.42,2.57.06,3.87-.06.2-.05.45,0,.66.26,1.01.34,2.02.13,3.05-.9,4.31-5.55,6.46-9.43,4.37-.14-.07-.37-.09-.5-.02-1.66.89-3.38,1.06-5.17.5-.21-.07-.3,0-.43.16-.29.35-.56.77-.94.99-.63.37-.78.84-.73,1.52.06.9-.31,1.64-1.07,2.15-.27.18-.6.28-.9.43h-.89c-.06-.03-.11-.06-.18-.08-1.09-.33-1.74-1.14-1.81-2.28-.02-.27-.03-.54,0-.81.02-.29-.08-.46-.33-.62-1.16-.76-1.86-1.85-2.15-3.2-.04-.18-.13-.36-.24-.5-1.66-2.23-1.7-5.26-.1-7.53,1.61-2.28,4.48-3.26,7.13-2.43.47.15.92.53,1.38.53.46,0,.91-.37,1.38-.53.4-.14.83-.2,1.26-.3-.02-.13-.03-.23-.05-.33-.25-1.24-.13-2.45.35-3.61.18-.45.59-.86.6-1.3.01-.44-.38-.88-.51-1.34-.17-.59-.27-1.2-.4-1.82-1.05-.06-2.05-.34-3-.84-.1-.05-.31.01-.42.09-2.16,1.49-4.82,1.49-6.97-.02-.2-.14-.33-.12-.54-.03-.49.22-.99.43-1.5.58-.46.13-.95.18-1.3.24-.24.82-.48,1.57-.69,2.33-.05.19-.07.43,0,.59.71,1.6.74,3.21.08,4.83-.07.18-.07.45,0,.64.55,1.36.63,2.73.18,4.11-.5,1.53-1.48,2.67-2.91,3.43-.6.32-.71.72-.36,1.29.14.23.31.44.46.66.77,1.1.56,2.58-.48,3.37-1.07.81-2.53.62-3.4-.45-.9-1.11-1.53-2.35-1.84-3.74-.11-.47-.34-.75-.79-.91-1.55-.57-2.73-1.59-3.44-3.08-.34-.71-.49-1.5-.73-2.26v-1.38c.12-.48.25-.95.37-1.43.03-.1.06-.22.04-.31-.13-.53-.27-1.06-.41-1.59v-1.38c.2-.68.41-1.36.61-2.03.02-.05.02-.11,0-.15-.2-.68-.4-1.35-.61-2.03v-1.38c.23-.74.38-1.52.72-2.2.28-.55.29-.92,0-1.47-.35-.67-.49-1.44-.72-2.16v-1.46s.05-.07.06-.1c.16-1.16.6-2.2,1.31-3.14.07-.09.12-.21.17-.32C2.99.03,7.3-1.14,10.4,1.25c.19.15.32.16.53.06,1.4-.62,2.86-.73,4.3-.22.81.29,1.55.77,2.39,1.2-.07.04-.03.02,0,0,2.04-1.28,4.09-1.3,6.14-.06.22.13.32.06.48-.07,1.91-1.48,4-1.78,6.24-.88.28.11.44.09.68-.09,3-2.32,7.34-1.13,8.76,2.38.07.16.14.32.24.46,1.6,2.29,1.77,4.66.44,7.12Zm-16.42,24.59s.07.03.11.05c.17-.28.36-.56.51-.85.33-.65.68-.78,1.34-.48,1.7.77,3.33.64,4.88-.4.52-.35.74-.35,1.25-.01,1.8,1.23,4,1.19,5.7-.1,1.67-1.27,2.27-3.41,1.58-5.48-.09-.28-.1-.65,0-.93.41-1.22.38-2.4-.09-3.6-.1-.26-.11-.63,0-.89.6-1.52.51-2.98-.3-4.4-.19-.34-.18-.65-.02-1,.22-.49.45-.99.57-1.5.28-1.16.13-2.29-.36-3.32-.67.37-1.3.77-1.97,1.07-.31.14-.38.28-.38.59,0,3.82.01,7.64,0,11.46,0,.59-.06,1.19-.2,1.76-.72,2.86-3.22,4.82-6.17,4.86-1.84.02-3.67,0-5.51,0-.56,0-.91.25-.93.74-.03.81,0,1.61,0,2.42Zm-2.45,4.12c.49,0,.81-.38.82-1,0-.12,0-.24,0-.36,0-1.64,0-3.27,0-4.9,0-1.62,1.01-2.63,2.63-2.63,1.73,0,3.46,0,5.19,0,2.95,0,5.03-2.08,5.03-5.02,0-3.7,0-7.4,0-11.1v-.44c-.55-.04-1.06-.07-1.62-.11v.5c0,3.72,0,7.43,0,11.14,0,2.05-1.35,3.41-3.39,3.41-1.73,0-3.46,0-5.19,0-2.51,0-4.24,1.7-4.27,4.2-.02,1.77,0,3.54,0,5.31,0,.63-.6,1.01.8,1.01Zm3.96-13.74c-.5.34-.9.31-1.4-.01-1.1-.72-2.32-.93-3.61-.62-3.5.83-4.89,4.9-2.65,7.72.18.23.29.54.36.83.14.64.37,1.24.84,1.75.04-.06.07-.08.07-.1,0-.73,0-1.46.01-2.19.04-3.32,2.51-5.77,5.82-5.77,1.76,0,3.51,0,5.27,0,1.12,0,1.76-.63,1.76-1.75,0-3.9,0-7.81,0-11.71,0-.11-.02-.22-.02-.26-.93.43-1.85.86-2.81,1.31.03.92.33,1.82.87,2.66.31.47.29.75-.03,1.18-1.18,1.56-1.39,3.23-.64,5.03.09.21.09.51.02.73-.13.4-.49.49-.89.46-1.07-.08-2.08.14-2.97.74ZM2.17,18.6c-.67,1.28-.73,2.61-.2,3.95.17.42.17.78,0,1.2-.99,2.46.21,5.28,2.68,6.21,1.07.4,1.68,1.09,1.92,2.19.24,1.11.77,2.1,1.48,2.98.33.41.8.48,1.18.19.35-.27.4-.74.11-1.16-.12-.18-.25-.35-.38-.53-1.12-1.55-.38-3.19.94-3.84,2.13-1.06,2.87-3.67,1.73-5.76-.23-.43-.22-.78,0-1.21.74-1.39.73-2.81-.07-4.17-.28-.49-.28-.88.01-1.34.4-.64.6-1.34.57-2.05-.7-.27-1.35-.52-2.06-.79-.43,1.54-.71,3.11-.85,4.71-.17,1.9-.13,3.8.05,5.7.12,1.3-.89,2.42-2.23,2.56-1.24.13-2.44-.81-2.59-2.06-.31-2.75-.28-5.5.12-8.24.14-.96.33-1.91.48-2.77-.97-.48-1.92-.94-2.89-1.42-.74,1.43-.77,2.93,0,4.43.22.43.22.79,0,1.22Zm5.76-1.85c.16-.88.36-1.76.54-2.66-.44.09-.87.21-1.31.24-.32.02-.45.14-.5.43-.21,1.29-.47,2.58-.62,3.87-.24,2.13-.23,4.26.02,6.39.03.23.18.48.35.64.25.23.58.21.87.03.34-.21.41-.53.37-.92-.26-2.69-.2-5.37.27-8.03Zm30.95-11.74c-.15-.22-.3-.45-.4-.7-1.07-2.85-4.61-3.62-6.76-1.46-.49.49-.74.52-1.35.17-1.86-1.07-4.09-.74-5.55.82-.54.58-.89.6-1.48.08-1.49-1.3-3.66-1.31-5.15-.02-.64.55-.95.53-1.54-.09-1.41-1.5-3.67-1.85-5.46-.83-.72.41-.89.38-1.48-.19-2.12-2.07-5.61-1.3-6.67.55-.11,1.17-.26,1.43-.43,1.67-.6.82-.95,1.73-.98,2.74-.11,3.76,3.8,6.17,7.12,4.41.57-.3.81-.27,1.27.14,1.84,1.68,4.38,1.87,6.45.49.53-.36.81-.34,1.3.1,1.79,1.58,4.16,1.58,5.95,0,.49-.43.76-.45,1.3-.09,2.07,1.38,4.61,1.19,6.45-.49.45-.41.7-.44,1.23-.16.73.39,1.5.61,2.72.6,1.56-.07,3.06-.92,3.93-2.69.86-1.75.64-3.45-.48-5.04Zm-3.79,4.91c-.87.47-1.92.38-2.69-.27-.2-.17-.37-.2-.61-.13-2.35.69-4.75,1.14-7.18,1.39-.55.06-.95-.22-1.01-.69-.06-.49.27-.86.85-.92,2.58-.27,5.12-.77,7.6-1.54.61-.19.84-.1,1.2.42.25.36.61.49.98.35.36-.14.57-.49.53-.91-.12-1.26-1.3-2.03-2.54-1.62-2.06.67-4.15,1.18-6.29,1.48-2.74.39-5.48.47-8.24.23-2.86-.24-5.65-.83-8.38-1.72-1.21-.39-2.34.33-2.52,1.56-.07.47.13.84.53.98.38.14.73,0,.99-.4.3-.45.58-.56,1.1-.4,2.52.79,5.09,1.3,7.72,1.57.52.05.84.42.8.89-.05.48-.45.78-.99.72-2.43-.25-4.83-.69-7.18-1.39-.26-.08-.43-.06-.65.12-.76.65-1.82.73-2.69.26-.88-.48-1.37-1.45-1.25-2.44.23-1.89,1.66-3.19,3.53-3.24.39.08.8.13,1.18.26,3.74,1.23,7.58,1.81,11.51,1.74,3.52-.06,6.95-.65,10.29-1.75,2.27-.74,4.42.65,4.7,3,.12.99-.39,1.96-1.26,2.44Zm-14.36-.44c.45-.01.83.36.82.81,0,.43-.36.8-.79.81-.45,0-.83-.36-.82-.81,0-.43.36-.79.79-.8Z"/>
</svg>