<svg 
 xmlns="http://www.w3.org/2000/svg"
 xmlns:xlink="http://www.w3.org/1999/xlink"
 width="98px" height="98px">
<path fill-rule="evenodd"  fill="#f8ae33"
 d="M81.799,67.215 C74.985,78.980 65.164,87.020 51.812,90.420 C46.398,91.798 40.878,92.480 35.296,91.866 C25.887,90.829 18.437,84.263 16.914,75.259 C16.387,72.143 16.654,69.078 17.440,66.039 C17.517,65.742 17.592,65.442 17.664,65.160 C15.238,63.873 12.336,65.620 12.262,68.393 C12.208,70.417 12.248,72.446 12.248,74.473 C12.248,79.603 12.248,84.736 12.247,89.868 C12.247,90.151 12.275,90.444 12.225,90.719 C12.077,91.538 11.576,92.040 10.734,92.048 C9.893,92.053 9.390,91.561 9.222,90.745 C9.184,90.561 9.200,90.366 9.200,90.175 C9.199,82.955 9.179,75.732 9.208,68.511 C9.224,64.571 12.414,61.533 16.322,61.664 C17.691,61.711 18.930,62.162 20.043,62.954 C21.072,63.688 21.239,64.176 20.836,65.390 C19.800,68.502 19.300,71.685 19.977,74.927 C21.499,82.217 26.126,86.562 33.216,88.441 C36.491,89.310 39.837,89.095 43.163,88.815 C49.751,88.261 56.024,86.587 61.839,83.381 C70.291,78.719 76.337,71.797 80.680,63.303 C84.467,55.892 86.716,48.002 87.679,39.774 C88.160,35.664 88.506,31.498 88.410,27.368 C88.230,19.624 85.006,13.413 78.031,9.549 C70.070,5.141 59.967,6.253 53.124,12.199 C52.455,12.780 51.771,13.068 50.887,13.004 C48.773,12.855 46.598,13.012 44.553,12.564 C40.070,11.584 36.769,7.310 36.655,2.779 C36.625,1.593 37.172,0.870 38.122,0.839 C39.062,0.809 39.635,1.482 39.701,2.688 C39.924,6.739 43.157,9.797 47.206,9.977 C49.550,10.083 51.463,9.588 53.490,8.157 C63.933,0.783 79.288,3.121 86.757,13.025 C89.792,17.050 91.375,21.652 91.465,26.631 C91.723,40.964 89.064,54.671 81.799,67.215 ZM47.194,19.039 C50.141,19.180 53.100,19.075 56.053,19.081 C62.503,19.094 67.116,23.667 67.135,30.075 C67.146,33.970 67.144,37.866 67.135,41.763 C67.122,47.286 65.166,52.021 61.285,55.955 C59.347,57.920 57.368,59.844 55.443,61.820 C55.172,62.099 54.963,62.564 54.955,62.949 C54.905,65.272 53.609,67.036 51.469,67.585 C49.509,68.088 47.425,67.210 46.406,65.453 C45.364,63.658 45.668,61.417 47.152,59.947 C48.717,58.398 50.886,58.191 52.922,59.394 C53.028,59.459 53.137,59.517 53.393,59.662 C55.888,57.030 58.529,54.503 60.851,51.712 C63.103,49.007 64.044,45.693 64.076,42.173 C64.113,38.056 64.107,33.937 64.081,29.820 C64.054,25.436 60.742,22.155 56.338,22.125 C53.447,22.105 50.557,22.125 47.667,22.120 C37.657,22.104 29.682,15.530 27.804,5.720 C27.614,4.731 27.554,3.710 27.511,2.700 C27.462,1.573 28.042,0.880 28.956,0.839 C29.903,0.799 30.511,1.499 30.548,2.672 C30.771,9.835 35.245,15.994 41.971,18.156 C43.637,18.693 45.439,18.956 47.194,19.039 ZM50.350,61.662 C49.522,61.672 48.840,62.365 48.848,63.190 C48.857,64.015 49.555,64.696 50.379,64.688 C51.204,64.680 51.890,63.981 51.882,63.160 C51.873,62.336 51.176,61.655 50.350,61.662 ZM49.927,73.807 C44.490,73.656 39.846,69.024 39.705,63.609 C39.674,62.419 40.211,61.699 41.161,61.662 C42.101,61.626 42.685,62.302 42.750,63.500 C42.968,67.476 46.047,70.546 50.043,70.770 C51.244,70.837 51.919,71.419 51.882,72.357 C51.844,73.300 51.116,73.840 49.927,73.807 ZM49.922,79.882 C42.421,79.834 35.526,74.152 33.989,66.759 C33.790,65.801 33.689,64.821 33.543,63.855 C33.561,63.851 33.580,63.848 33.598,63.844 C33.598,63.623 33.585,63.401 33.600,63.179 C33.662,62.283 34.285,61.664 35.115,61.662 C35.945,61.660 36.537,62.267 36.644,63.174 C36.785,64.364 36.832,65.584 37.138,66.734 C38.704,72.609 43.898,76.656 50.043,76.847 C50.891,76.874 51.648,77.111 51.779,77.979 C51.854,78.477 51.582,79.147 51.239,79.546 C50.996,79.829 50.374,79.884 49.922,79.882 ZM42.736,37.723 C42.770,34.303 42.749,30.882 42.759,27.464 C42.760,27.117 42.759,26.760 42.835,26.424 C43.020,25.608 43.568,25.176 44.403,25.184 C45.194,25.192 45.794,25.827 45.810,26.686 C45.831,27.856 45.807,29.029 45.790,30.200 C45.742,33.458 45.910,36.739 45.590,39.972 C44.861,47.343 39.457,53.468 32.246,55.366 C29.949,55.970 27.784,56.799 25.890,58.254 C25.054,58.896 24.328,58.605 23.560,58.054 C17.235,53.520 8.528,55.446 4.750,62.202 C3.629,64.206 3.095,66.358 3.097,68.654 C3.105,75.652 3.100,82.652 3.100,89.648 C3.100,89.933 3.112,90.219 3.094,90.503 C3.036,91.414 2.439,92.035 1.616,92.060 C0.755,92.085 0.079,91.443 0.062,90.491 C0.031,88.845 0.051,87.197 0.051,85.550 C0.050,83.333 0.050,81.117 0.051,78.900 C0.051,75.481 0.042,72.061 0.052,68.641 C0.082,59.381 7.479,52.245 16.756,52.555 C19.438,52.644 21.939,53.421 24.218,54.844 C24.673,55.127 24.979,55.107 25.485,54.875 C27.319,54.034 29.150,53.102 31.084,52.577 C38.020,50.692 42.665,44.884 42.736,37.723 Z"/>
</svg>