<svg 
 xmlns="http://www.w3.org/2000/svg"
 xmlns:xlink="http://www.w3.org/1999/xlink"
 width="27px" height="24px">
<path fill-rule="evenodd"  fill="#95bb58"
 d="M26.525,1.627 C26.013,2.038 25.517,2.466 25.036,2.911 C23.144,4.660 21.504,6.619 20.008,8.700 C18.030,11.452 16.341,14.372 14.790,17.372 C14.418,18.090 14.058,18.817 13.693,19.541 C13.633,19.659 13.265,19.841 13.145,19.806 C13.066,19.785 13.062,19.702 13.033,19.643 C12.304,18.166 11.572,16.689 10.757,15.255 C10.211,14.297 9.641,13.352 8.911,12.513 C8.427,11.957 7.882,11.474 7.167,11.215 C6.835,11.094 6.492,11.029 6.137,11.025 C6.034,11.024 5.931,11.025 5.801,11.025 C6.049,10.466 6.406,10.030 6.853,9.664 C8.340,8.448 10.169,8.512 11.582,9.825 C12.378,10.564 12.913,11.474 13.359,12.443 C13.390,12.510 13.422,12.577 13.454,12.646 C13.538,12.627 13.546,12.557 13.577,12.508 C14.572,10.928 15.766,9.499 17.043,8.134 C18.703,6.361 20.484,4.719 22.487,3.322 C23.561,2.572 24.682,1.904 25.939,1.484 C26.085,1.435 26.234,1.395 26.382,1.352 C26.466,1.328 26.553,1.309 26.607,1.400 C26.668,1.503 26.599,1.568 26.525,1.627 ZM18.773,4.123 C17.089,2.870 15.191,2.184 13.080,2.115 C10.273,2.022 7.825,2.928 5.785,4.823 C3.974,6.505 2.926,8.585 2.702,11.027 C2.426,14.032 3.362,16.650 5.486,18.830 C7.166,20.553 9.237,21.545 11.655,21.785 C14.362,22.054 16.805,21.357 18.938,19.695 C20.840,18.213 22.043,16.287 22.538,13.952 C22.936,12.076 22.765,10.238 22.081,8.445 C22.060,8.391 22.043,8.346 22.084,8.288 C22.462,7.740 22.837,7.190 23.212,6.641 C23.220,6.629 23.230,6.619 23.252,6.593 C24.187,8.377 24.639,10.262 24.578,12.254 C24.479,15.441 23.274,18.174 20.936,20.385 C16.142,24.921 8.642,24.670 4.149,20.092 C-0.490,15.363 -0.228,7.987 4.429,3.582 C9.233,-0.961 16.336,-0.528 20.553,3.215 C20.119,3.641 19.689,4.063 19.252,4.492 C19.097,4.373 18.937,4.245 18.773,4.123 Z"/>
</svg>